<svg width="30" height="30" viewBox="0 0 30 30" fill="none" xmlns="http://www.w3.org/2000/svg">
<rect width="30" height="30" rx="5" fill="white"/>
<path d="M18.3443 9.9543L15.49 9.96464V6.73623C16.4894 7.15319 17.3089 7.91414 17.7982 8.8838L17.798 8.8839L17.8014 8.88961C18.0043 9.23306 18.186 9.58874 18.3443 9.9543ZM13.76 6.73649V9.965H10.906C11.0643 9.59932 11.2455 9.24393 11.4486 8.90094L11.4488 8.90107L11.4519 8.89475C11.9392 7.9211 12.7588 7.15613 13.76 6.73649ZM10.917 20.7507L13.7712 20.7404V23.9688C12.7718 23.5518 11.9523 22.7909 11.463 21.8212L11.4632 21.8211L11.4598 21.8153C11.2567 21.4721 11.0754 21.1166 10.917 20.7507ZM17.7982 21.8662C17.3089 22.8359 16.4894 23.5968 15.49 24.0138V20.7962H18.344C18.1857 21.1619 18.0045 21.5173 17.8014 21.8603L17.8013 21.8602L17.7982 21.8662ZM18.5619 7.49593C19.7325 8.08697 20.7589 8.92987 21.5668 9.965H19.8703C19.5501 9.085 19.1096 8.25415 18.5619 7.49593ZM10.6857 23.2957C9.52493 22.7023 8.50797 21.8607 7.70753 20.83H9.37972C9.69948 21.7087 10.1391 22.5384 10.6857 23.2957ZM21.5643 20.83C20.7595 21.8409 19.7448 22.6637 18.5914 23.2421C19.1203 22.4993 19.5468 21.688 19.859 20.83H21.5643ZM14.625 5.15C11.9132 5.15 9.31239 6.22727 7.39483 8.14483C5.47727 10.0624 4.4 12.6632 4.4 15.375C4.4 18.0868 5.47727 20.6876 7.39483 22.6052C9.31239 24.5227 11.9132 25.6 14.625 25.6C17.3368 25.6 19.9376 24.5227 21.8552 22.6052C23.7727 20.6876 24.85 18.0868 24.85 15.375C24.85 12.6632 23.7727 10.0624 21.8552 8.14483C19.9376 6.22727 17.3368 5.15 14.625 5.15ZM6.6335 19.0775C6.21666 18.1821 5.9546 17.2227 5.85833 16.24H8.47708C8.52476 17.1956 8.65724 18.1451 8.87362 19.0775H6.6335ZM15.49 11.6838H18.9352C19.174 12.6129 19.3198 13.5634 19.3689 14.5212H15.49V11.6838ZM13.76 11.6838V14.5212H9.89237C9.94143 13.5634 10.0872 12.6129 10.3261 11.6838H13.76ZM8.87356 11.6725C8.65677 12.6045 8.52406 13.5542 8.47702 14.51H5.85833C5.9546 13.5273 6.21666 12.5679 6.6335 11.6725H8.87356ZM10.3261 19.0775C10.0873 18.1485 9.94205 17.1979 9.89243 16.24H13.76V19.0775H10.3261ZM15.49 19.0212V16.1838H19.3576C19.308 17.1416 19.1627 18.0922 18.9239 19.0212H15.49ZM20.3765 19.0212C20.5938 18.0886 20.7271 17.1393 20.7755 16.1838H23.4029C23.3067 17.1665 23.0446 18.1259 22.6278 19.0212H20.3765ZM20.7836 14.4669C20.73 13.529 20.594 12.5977 20.377 11.6838H22.6165C23.0332 12.5793 23.295 13.5375 23.3914 14.519L20.7836 14.4669ZM9.37972 9.965H7.68324C8.49109 8.92987 9.5175 8.08696 10.6881 7.49593C10.1404 8.25415 9.69995 9.085 9.37972 9.965Z" fill="#18246C" stroke="#18246C" stroke-width="0.2"/>
</svg>
